<svg width="128" height="32" viewBox="0 0 128 32" fill="none" xmlns="http://www.w3.org/2000/svg">
<path fill-rule="evenodd" clip-rule="evenodd" d="M54.6539 23.625V10.5714H58.1598V6.55357H54.6539V0H49.7179V6.55357H46.683V10.5714H49.7179V23.625H54.6539ZM4.97093 14.5893V23.625H0V6.55357H4.97093V9.03571C5.37791 8.15476 5.9593 7.45833 6.71512 6.94643C7.52907 6.45833 8.40116 6.21429 9.3314 6.21429C11.9709 6.21429 13.7558 7.21429 14.686 9.21429C15.907 7.19048 17.564 6.17857 19.657 6.17857C21.75 6.17857 23.3488 6.85119 24.4535 8.19643C25.5581 9.54167 26.1105 11.4524 26.1105 13.9286V23.625H21.1919V14.5179C21.1919 13.4702 20.9419 12.6429 20.4419 12.0357C19.9186 11.4286 19.2326 11.125 18.3837 11.125C17.5349 11.125 16.8547 11.4107 16.343 11.9821C15.8314 12.5536 15.5756 13.4226 15.5756 14.5893V23.625H10.6047V14.4107C10.5581 13.3869 10.2849 12.5833 9.78488 12C9.27326 11.4167 8.61047 11.125 7.79651 11.125C6.98256 11.125 6.30814 11.4048 5.77326 11.9643C5.23837 12.5238 4.97093 13.3988 4.97093 14.5893ZM45.9985 6.55357L35.7078 32H30.4578L34.4694 21.875L28.0334 6.55357H33.3182L36.9985 16.2321L40.7136 6.55357H45.9985ZM76.2338 20.5179C74.6873 22.8393 72.1466 23.994 68.6117 23.9821C66.1582 23.9821 64.0885 23.1548 62.4024 21.5C60.7396 19.8214 59.9082 17.6667 59.9082 15.0357C59.9082 12.4048 60.7396 10.2679 62.4024 8.625C64.0652 6.98214 66.1233 6.16667 68.5768 6.17857C71.0303 6.17857 73.071 7.0119 74.6989 8.67857C76.3268 10.3452 77.1466 12.5119 77.1582 15.1786C77.1582 15.2024 77.135 15.7262 77.0885 16.75H64.8617C64.9547 17.6548 65.4082 18.3571 66.2222 18.8571C67.0361 19.3571 67.9547 19.6071 68.978 19.6071C70.571 19.6071 71.7861 19.0714 72.6233 18L76.2338 20.5179ZM72.1524 13.5714H64.9315C65.1175 12.6429 65.5826 11.9167 66.3268 11.3929C67.0478 10.869 67.8268 10.619 68.664 10.6429C69.5013 10.6667 70.2629 10.9286 70.9489 11.4286C71.635 11.9286 72.0361 12.6429 72.1524 13.5714ZM90.4707 23.375C89.5288 23.7798 88.6276 23.9702 87.7672 23.9464C85.4765 23.9464 83.4881 23.125 81.8021 21.4821C80.116 19.8393 79.273 17.7024 79.273 15.0714C79.273 12.4405 80.1451 10.3036 81.8893 8.66071C83.6335 7.01786 85.5928 6.19048 87.7672 6.17857C88.6509 6.17857 89.5579 6.375 90.4881 6.76786C91.4183 7.16071 92.1335 7.72024 92.6335 8.44643V6.55357H97.5521V23.625H92.6335V21.6786C92.1335 22.4048 91.4125 22.9702 90.4707 23.375ZM88.5695 19.125C87.4416 19.125 86.4707 18.744 85.6567 17.9821C84.8195 17.2202 84.4009 16.256 84.4009 15.0893C84.4009 13.9345 84.8195 12.9643 85.6567 12.1786C86.5637 11.4048 87.5579 11.0179 88.6393 11.0179C89.7207 11.0179 90.6567 11.3988 91.4474 12.1607C92.2381 12.9226 92.6335 13.8988 92.6335 15.0893C92.6335 16.2798 92.2381 17.25 91.4474 18C90.6567 18.75 89.6974 19.125 88.5695 19.125ZM106.818 14.5893V23.625H101.847V6.55357H106.818V9.03571C107.225 8.15476 107.806 7.45833 108.562 6.94643C109.376 6.45833 110.248 6.21429 111.178 6.21429C113.818 6.21429 115.603 7.21429 116.533 9.21429C117.754 7.19048 119.411 6.17857 121.504 6.17857C123.597 6.17857 125.196 6.85119 126.301 8.19643C127.405 9.54167 127.958 11.4524 127.958 13.9286V23.625H123.039V14.5179C123.039 13.4702 122.789 12.6429 122.289 12.0357C121.766 11.4286 121.08 11.125 120.231 11.125C119.382 11.125 118.702 11.4107 118.19 11.9821C117.678 12.5536 117.423 13.4226 117.423 14.5893V23.625H112.452V14.4107C112.405 13.3869 112.132 12.5833 111.632 12C111.12 11.4167 110.458 11.125 109.644 11.125C108.83 11.125 108.155 11.4048 107.62 11.9643C107.085 12.5238 106.818 13.3988 106.818 14.5893Z" fill="white"/>
</svg>
